# xmcd
#
# Track frame offsets:
#	150
#	19026
#	36275
#	52410
#	65956
#	80321
#	97811
#	113327
#	128550
#	144120
#	158800
#	175781
#	188931
#	203087
#	219781
#	232361
#	246170
#	263825
#	279645
#	295580
#	309202
#	325479
#
# Disc length: 4556 seconds
#
# Revision: 0
# Processed by: cddbd v1.5.2PL0 Copyright (c) Steve Scherf et al.
# Submitted via: EasyCDDAExtractor 12.1.0.1
#
DISCID=3711ca16
DTITLE=Various Artist - ERG Nu Country Traxx Volume 134
DYEAR=2010
DGENRE=Country
TTITLE0=Lady Antebellum - Our Kind Of Love
TTITLE1=Keith Urban - I'm In
TTITLE2=John Rich - Country Done Come To Town
TTITLE3=Billy Currington - Pretty Good At Drinkin' Beer
TTITLE4=Miranda Lambert - Only Prettier
TTITLE5=Danny Gokey - I Will Not Say Goodbye
TTITLE6=Williams Riley - Makes Me Go (La La)
TTITLE7=Trace Adkins - This Ain't No Love Song
TTITLE8=Jennette McCurdy - Not That Far Away
TTITLE9=Bomshel - Just Fine
TTITLE10=The Band Perry - If I Die Young
TTITLE11=Sunny Ledfurd - Pontoon Boat
TTITLE12=Chris Young - Voices
TTITLE13=Jewel - Satisfied
TTITLE14=Charlie Allen - Granpa's Recipe
TTITLE15=Kevin Fowler - Pound Sign (#?!)
TTITLE16=Jack Ingram - Barbie Doll 2010
TTITLE17=James Wesley - Real
TTITLE18=Martin Ramey - Twisted
TTITLE19=Justin Moore - How I Got To Be This Way
TTITLE20=Sunny Sweeney - From A Table Away
TTITLE21=Brantley Gilbert - My Kind Of Crazy
EXTD=
EXTT0=
EXTT1=
EXTT2=
EXTT3=
EXTT4=
EXTT5=
EXTT6=
EXTT7=
EXTT8=
EXTT9=
EXTT10=
EXTT11=
EXTT12=
EXTT13=
EXTT14=
EXTT15=
EXTT16=
EXTT17=
EXTT18=
EXTT19=
EXTT20=
EXTT21=
PLAYORDER=
